<?xml version="1.0" encoding="UTF-8" standalone="no"?>
<!DOCTYPE svg PUBLIC "-//W3C//DTD SVG 1.1//EN"
 "http://www.w3.org/Graphics/SVG/1.1/DTD/svg11.dtd">
<!-- Generated by graphviz version 2.43.0 (0)
 -->
<!-- Title: dependency&#45;cruiser output Pages: 1 -->
<svg width="334pt" height="140pt"
 viewBox="0.00 0.00 334.00 140.00" xmlns="http://www.w3.org/2000/svg" xmlns:xlink="http://www.w3.org/1999/xlink">
<g id="graph0" class="graph" transform="scale(1 1) rotate(0) translate(4 136)">
<title>dependency&#45;cruiser output</title>
<polygon fill="white" stroke="transparent" points="-4,4 -4,-136 330,-136 330,4 -4,4"/>
<g id="clust1" class="cluster">
<title>cluster_src</title>
<path fill="#ffffff" stroke="black" stroke-width="2" d="M20,-8C20,-8 306,-8 306,-8 312,-8 318,-14 318,-20 318,-20 318,-112 318,-112 318,-118 312,-124 306,-124 306,-124 20,-124 20,-124 14,-124 8,-118 8,-112 8,-112 8,-20 8,-20 8,-14 14,-8 20,-8"/>
<text text-anchor="middle" x="163" y="-112.8" font-family="Helvetica,sans-Serif" font-weight="bold" font-size="9.00">src</text>
</g>
<g id="clust2" class="cluster">
<title>cluster_src/component</title>
<path fill="#ffffff" stroke="black" stroke-width="2" d="M157,-16C157,-16 298,-16 298,-16 304,-16 310,-22 310,-28 310,-28 310,-86 310,-86 310,-92 304,-98 298,-98 298,-98 157,-98 157,-98 151,-98 145,-92 145,-86 145,-86 145,-28 145,-28 145,-22 151,-16 157,-16"/>
<text text-anchor="middle" x="227.5" y="-86.8" font-family="Helvetica,sans-Serif" font-weight="bold" font-size="9.00">component</text>
</g>
<!-- src/App.js -->
<g id="node1" class="node">
<title>src/App.js</title>
<g id="a_node1"><a xlink:href="src/App.js" xlink:title="App.js">
<path fill="#ffffcc" stroke="black" d="M131,-57C131,-57 89,-57 89,-57 86,-57 83,-54 83,-51 83,-51 83,-45 83,-45 83,-42 86,-39 89,-39 89,-39 131,-39 131,-39 134,-39 137,-42 137,-45 137,-45 137,-51 137,-51 137,-54 134,-57 131,-57"/>
<text text-anchor="start" x="96" y="-45.8" font-family="Helvetica,sans-Serif" font-size="9.00">App.js</text>
</a>
</g>
</g>
<!-- src/component/Form.js -->
<g id="node2" class="node">
<title>src/component/Form.js</title>
<g id="a_node2"><a xlink:href="src/component/Form.js" xlink:title="Form.js">
<path fill="#ffffcc" stroke="black" d="M205,-72C205,-72 163,-72 163,-72 160,-72 157,-69 157,-66 157,-66 157,-60 157,-60 157,-57 160,-54 163,-54 163,-54 205,-54 205,-54 208,-54 211,-57 211,-60 211,-60 211,-66 211,-66 211,-69 208,-72 205,-72"/>
<text text-anchor="start" x="167.5" y="-60.8" font-family="Helvetica,sans-Serif" font-size="9.00">Form.js</text>
</a>
</g>
</g>
<!-- src/App.js&#45;&gt;src/component/Form.js -->
<g id="edge1" class="edge">
<title>src/App.js&#45;&gt;src/component/Form.js</title>
<path fill="none" stroke="#000000" stroke-width="2" stroke-opacity="0.200000" d="M137.4,-53.5C141.71,-54.4 146.21,-55.33 150.64,-56.26"/>
<polygon fill="#000000" fill-opacity="0.200000" stroke="#000000" stroke-width="2" stroke-opacity="0.200000" points="150.3,-58.33 156.6,-57.5 151.16,-54.22 150.3,-58.33"/>
</g>
<!-- src/component/TodoList.js -->
<g id="node3" class="node">
<title>src/component/TodoList.js</title>
<g id="a_node3"><a xlink:href="src/component/TodoList.js" xlink:title="TodoList.js">
<path fill="#ffffcc" stroke="black" d="M209,-42C209,-42 159,-42 159,-42 156,-42 153,-39 153,-36 153,-36 153,-30 153,-30 153,-27 156,-24 159,-24 159,-24 209,-24 209,-24 212,-24 215,-27 215,-30 215,-30 215,-36 215,-36 215,-39 212,-42 209,-42"/>
<text text-anchor="start" x="161" y="-30.8" font-family="Helvetica,sans-Serif" font-size="9.00">TodoList.js</text>
</a>
</g>
</g>
<!-- src/App.js&#45;&gt;src/component/TodoList.js -->
<g id="edge2" class="edge">
<title>src/App.js&#45;&gt;src/component/TodoList.js</title>
<path fill="none" stroke="#000000" stroke-width="2" stroke-opacity="0.200000" d="M137.4,-42.5C140.36,-41.88 143.4,-41.25 146.46,-40.61"/>
<polygon fill="#000000" fill-opacity="0.200000" stroke="#000000" stroke-width="2" stroke-opacity="0.200000" points="147.26,-42.59 152.7,-39.31 146.4,-38.48 147.26,-42.59"/>
</g>
<!-- src/component/SingleTodo.js -->
<g id="node4" class="node">
<title>src/component/SingleTodo.js</title>
<g id="a_node4"><a xlink:href="src/component/SingleTodo.js" xlink:title="SingleTodo.js">
<path fill="#ffffcc" stroke="black" d="M296,-42C296,-42 234,-42 234,-42 231,-42 228,-39 228,-36 228,-36 228,-30 228,-30 228,-27 231,-24 234,-24 234,-24 296,-24 296,-24 299,-24 302,-27 302,-30 302,-30 302,-36 302,-36 302,-39 299,-42 296,-42"/>
<text text-anchor="start" x="236" y="-30.8" font-family="Helvetica,sans-Serif" font-size="9.00">SingleTodo.js</text>
</a>
</g>
</g>
<!-- src/component/TodoList.js&#45;&gt;src/component/SingleTodo.js -->
<g id="edge3" class="edge">
<title>src/component/TodoList.js&#45;&gt;src/component/SingleTodo.js</title>
<path fill="none" stroke="#000000" stroke-width="2" stroke-opacity="0.200000" d="M215.32,-33C217.36,-33 219.44,-33 221.53,-33"/>
<polygon fill="#000000" fill-opacity="0.200000" stroke="#000000" stroke-width="2" stroke-opacity="0.200000" points="221.82,-35.1 227.82,-33 221.82,-30.9 221.82,-35.1"/>
</g>
<!-- src/index.js -->
<g id="node5" class="node">
<title>src/index.js</title>
<g id="a_node5"><a xlink:href="src/index.js" xlink:title="index.js">
<path fill="#ffffcc" stroke="black" d="M64,-57C64,-57 22,-57 22,-57 19,-57 16,-54 16,-51 16,-51 16,-45 16,-45 16,-42 19,-39 22,-39 22,-39 64,-39 64,-39 67,-39 70,-42 70,-45 70,-45 70,-51 70,-51 70,-54 67,-57 64,-57"/>
<text text-anchor="start" x="25.5" y="-45.8" font-family="Helvetica,sans-Serif" font-size="9.00">index.js</text>
</a>
</g>
</g>
<!-- src/index.js&#45;&gt;src/App.js -->
<g id="edge4" class="edge">
<title>src/index.js&#45;&gt;src/App.js</title>
<path fill="none" stroke="#000000" stroke-width="2" stroke-opacity="0.200000" d="M70.06,-48C72.32,-48 74.61,-48 76.9,-48"/>
<polygon fill="#000000" fill-opacity="0.200000" stroke="#000000" stroke-width="2" stroke-opacity="0.200000" points="76.93,-50.1 82.93,-48 76.93,-45.9 76.93,-50.1"/>
</g>
</g>
</svg>
